<!--?xml version="1.0" encoding="utf-8"?-->
<!-- Generator: Adobe Illustrator 18.1.1, SVG Export Plug-In . SVG Version: 6.00 Build 0)  -->

<svg version="1.1" id="_x31_0" xmlns="http://www.w3.org/2000/svg" xmlns:xlink="http://www.w3.org/1999/xlink" x="0px" y="0px" viewBox="0 0 512 512" style="width: 256px; height: 256px; opacity: 1;" xml:space="preserve">
<style type="text/css">
	.st0{fill:#374149;}
</style>
<g>
	<path class="st0" d="M391.267,0H120.729C61.624,0,13.539,48.085,13.539,107.19v182.456c0,22.624,7.089,43.597,19.098,60.911
		c0.248,0.359,0.462,0.737,0.71,1.092c0.947,1.324,1.983,2.574,2.986,3.854c0.932,1.195,1.82,2.423,2.801,3.578
		c0.544,0.637,1.146,1.221,1.706,1.846c1.506,1.69,3.015,3.378,4.628,4.972c0.355,0.352,0.747,0.666,1.11,1.01
		c1.85,1.779,3.734,3.526,5.713,5.172c0.699,0.581,1.454,1.095,2.168,1.658c1.672,1.321,3.341,2.653,5.098,3.874
		c2.29,1.598,4.661,3.082,7.077,4.498c0.207,0.122,0.396,0.263,0.603,0.382c10.84,6.27,22.864,10.71,35.658,12.863l1.143,98.826
		c0.085,7.114,4.343,13.515,10.873,16.334c2.302,0.998,4.736,1.483,7.148,1.483c4.436,0,8.806-1.635,12.198-4.75l120.191-110.409
		h136.821c59.106,0,107.194-48.089,107.194-107.194V107.19C498.461,48.085,450.372,0,391.267,0z M137.832,262.61
		c0-7.522,6.098-13.618,13.618-13.618h113.584c7.521,0,13.618,6.097,13.618,13.618c0,7.525-6.098,13.618-13.618,13.618H151.451
		C143.93,276.228,137.832,270.134,137.832,262.61z M151.451,177.51h209.094c7.521,0,13.618,6.098,13.618,13.622
		c0,7.522-6.098,13.618-13.618,13.618H151.451c-7.521,0-13.618-6.097-13.618-13.618C137.832,183.607,143.93,177.51,151.451,177.51z
		 M360.545,133.27H151.451c-7.521,0-13.618-6.098-13.618-13.619c0-7.521,6.098-13.618,13.618-13.618h209.094
		c7.521,0,13.618,6.098,13.618,13.618C374.164,127.172,368.066,133.27,360.545,133.27z" style="fill: rgb(58, 171, 210);"></path>
</g>
</svg>
