<!--?xml version="1.0" encoding="utf-8"?-->
<!-- Generator: Adobe Illustrator 18.0.0, SVG Export Plug-In . SVG Version: 6.00 Build 0)  -->

<svg version="1.1" id="_x31_0" xmlns="http://www.w3.org/2000/svg" xmlns:xlink="http://www.w3.org/1999/xlink" x="0px" y="0px" viewBox="0 0 512 512" style="width: 256px; height: 256px; opacity: 1;" xml:space="preserve">
<style type="text/css">
	.st0{fill:#374149;}
</style>
<g>
	<polygon class="st0" points="217.918,217.082 161.813,321.617 116.16,241.106 85.054,354.426 249.324,354.426 262.676,354.426 
		255.426,332.2 	" style="fill: rgb(75, 75, 75);"></polygon>
	<polygon class="st0" points="326.082,321.617 280.426,241.106 267.754,287.312 287.039,346.492 289.645,354.426 426.946,354.426 
		382.187,217.082 	" style="fill: rgb(75, 75, 75);"></polygon>
	<path class="st0" d="M0,87.09v337.82h512V87.09H0z M42.668,382.246V129.758h426.664v252.488H42.668z" style="fill: rgb(75, 75, 75);"></path>
	<path class="st0" d="M324.203,208.918c15.758,0,28.535-12.781,28.535-28.539c0-13.574-9.454-24.898-22.094-27.808
		c0.343,1.629,0.484,3.324,0.484,5.054c0,15.758-12.812,28.574-28.57,28.574c-2.214,0-4.398-0.242-6.476-0.762
		C298.473,198.805,310.145,208.918,324.203,208.918z" style="fill: rgb(75, 75, 75);"></path>
</g>
</svg>
